<svg width="10" height="13" viewBox="0 0 10 13" fill="none" xmlns="http://www.w3.org/2000/svg">
<path d="M1 6V5C0.447715 5 0 5.44772 0 6H1ZM9 6H10C10 5.44772 9.55229 5 9 5V6ZM9 12V13C9.55229 13 10 12.5523 10 12H9ZM1 12H0C0 12.5523 0.447715 13 1 13L1 12ZM7 5C7 5.55228 7.44772 6 8 6C8.55228 6 9 5.55228 9 5H7ZM1 5C1 5.55228 1.44772 6 2 6C2.55228 6 3 5.55228 3 5H1ZM6 10C6 9.44771 5.55228 9 5 9C4.44772 9 4 9.44771 4 10H6ZM4 12C4 12.5523 4.44772 13 5 13C5.55228 13 6 12.5523 6 12H4ZM1 7H9V5H1V7ZM8 6V12H10V6H8ZM9 11H1V13H9V11ZM2 12V6H0V12H2ZM9 5V3.9H7V5H9ZM9 3.9C9 1.72566 7.22997 0 5 0V2C6.17003 2 7 2.87434 7 3.9H9ZM5 0C2.77003 0 1 1.72566 1 3.9H3C3 2.87434 3.82997 2 5 2V0ZM1 3.9V5H3V3.9H1ZM4 10V12H6V10H4Z" fill="#83C500"/>
</svg>
