<svg width="42" height="35" viewBox="0 0 42 35" fill="none" xmlns="http://www.w3.org/2000/svg">
<path d="M4 32.1C3.44772 32.1 3 32.5477 3 33.1C3 33.6523 3.44772 34.1 4 34.1V32.1ZM38 34.1C38.5523 34.1 39 33.6523 39 33.1C39 32.5477 38.5523 32.1 38 32.1V34.1ZM4 34.1H38V32.1H4V34.1ZM25 22C25 19.7477 23.2523 18 21 18V20C22.1477 20 23 20.8523 23 22H25ZM21 18C18.7477 18 17 19.7477 17 22H19C19 20.8523 19.8523 20 21 20V18ZM31 18C28.7477 18 27 19.7477 27 22H29C29 20.8523 29.8523 20 31 20V18ZM15 22C15 19.7477 13.2523 18 11 18V20C12.1477 20 13 20.8523 13 22H15ZM27 22V34H29V22H27ZM23 22V34H25V22H23ZM17 22V34H19V22H17ZM13 22V34H15V22H13ZM31 12V34H33V12H31ZM9 12V34H11V12H9ZM13 9H29V7H13V9ZM7 2H35V0H7V2ZM12 7C12 9.76142 9.76142 12 7 12V14C10.866 14 14 10.866 14 7H12ZM7 12C4.23858 12 2 9.76142 2 7H0C0 10.866 3.13401 14 7 14V12ZM2 7C2 4.23858 4.23858 2 7 2V0C3.13401 0 0 3.13401 0 7H2ZM7 2C9.76142 2 12 4.23858 12 7H14C14 3.13401 10.866 0 7 0V2ZM40 7C40 9.76142 37.7614 12 35 12V14C38.866 14 42 10.866 42 7H40ZM35 12C32.2386 12 30 9.76142 30 7H28C28 10.866 31.134 14 35 14V12ZM30 7C30 4.23858 32.2386 2 35 2V0C31.134 0 28 3.13401 28 7H30ZM35 2C37.7614 2 40 4.23858 40 7H42C42 3.13401 38.866 0 35 0V2Z" fill="#83C500"/>
</svg>
