<svg width="32" height="38" viewBox="0 0 32 38" fill="none" xmlns="http://www.w3.org/2000/svg">
<path d="M24 14C24 14.5523 24.4477 15 25 15C25.5523 15 26 14.5523 26 14H24ZM25 8H26C26 7.44772 25.5523 7 25 7V8ZM1 8V7C0.447715 7 0 7.44772 0 8H1ZM1 37H0C0 37.5523 0.447715 38 1 38L1 37ZM25 37V38C25.5523 38 26 37.5523 26 37H25ZM26 32C26 31.4477 25.5523 31 25 31C24.4477 31 24 31.4477 24 32H26ZM15 4C15 4.55228 15.4477 5 16 5C16.5523 5 17 4.55228 17 4H15ZM9 4C9 4.55228 9.44771 5 10 5C10.5523 5 11 4.55228 11 4H9ZM3 3C2.44772 3 2 3.44772 2 4C2 4.55228 2.44772 5 3 5V3ZM23 5C23.5523 5 24 4.55228 24 4C24 3.44772 23.5523 3 23 3V5ZM20.0071 21.9928C19.6166 21.6023 18.9834 21.6023 18.5929 21.9928C18.2024 22.3834 18.2024 23.0165 18.5929 23.4071L20.0071 21.9928ZM22 25.4L21.2929 26.1071L22 26.8142L22.7071 26.1071L22 25.4ZM31.4071 17.4071C31.7976 17.0165 31.7976 16.3834 31.4071 15.9928C31.0166 15.6023 30.3834 15.6023 29.9929 15.9928L31.4071 17.4071ZM5 14C4.44772 14 4 14.4477 4 15C4 15.5523 4.44772 16 5 16V14ZM17.6 16C18.1523 16 18.6 15.5523 18.6 15C18.6 14.4477 18.1523 14 17.6 14V16ZM5 18C4.44772 18 4 18.4477 4 19C4 19.5523 4.44772 20 5 20V18ZM13 20C13.5523 20 14 19.5523 14 19C14 18.4477 13.5523 18 13 18V20ZM5 22C4.44772 22 4 22.4477 4 23C4 23.5523 4.44772 24 5 24V22ZM12 24C12.5523 24 13 23.5523 13 23C13 22.4477 12.5523 22 12 22V24ZM5 26C4.44772 26 4 26.4477 4 27C4 27.5523 4.44772 28 5 28V26ZM13 28C13.5523 28 14 27.5523 14 27C14 26.4477 13.5523 26 13 26V28ZM26 14V8H24V14H26ZM25 7H1V9H25V7ZM0 8V37H2V8H0ZM1 38H25V36H1V38ZM26 37V32H24V37H26ZM17 4C17 1.74772 15.2523 0 13 0V2C14.1477 2 15 2.85228 15 4H17ZM13 0C10.7477 0 9 1.74772 9 4H11C11 2.85228 11.8523 2 13 2V0ZM3 5H23V3H3V5ZM30 23C30 27.4183 26.4183 31 22 31V33C27.5228 33 32 28.5228 32 23H30ZM22 31C17.5817 31 14 27.4183 14 23H12C12 28.5228 16.4772 33 22 33V31ZM14 23C14 18.5817 17.5817 15 22 15V13C16.4772 13 12 17.4772 12 23H14ZM22 15C26.4183 15 30 18.5817 30 23H32C32 17.4772 27.5228 13 22 13V15ZM5 16H17.6V14H5V16ZM5 20H13V18H5V20ZM5 24H12V22H5V24ZM5 28H13V26H5V28ZM18.5929 23.4071L21.2929 26.1071L22.7071 24.6928L20.0071 21.9928L18.5929 23.4071ZM22.7071 26.1071L31.4071 17.4071L29.9929 15.9928L21.2929 24.6928L22.7071 26.1071Z" fill="#83C500"/>
</svg>
