<?xml version="1.0" encoding="utf-8"?><svg xmlns="http://www.w3.org/2000/svg" xmlns:xlink="http://www.w3.org/1999/xlink"><symbol viewBox="0 0 8 14" fill="none" id="fb" xmlns="http://www.w3.org/2000/svg"><path d="M7.5.5l-.4 2.2s-.6-.2-1.2-.2-1.1.2-1.1.8V5h2.4L7 7.2H4.8v6.6H2V7.2H.5V5H2V3.5c0-.6 0-1.6.5-2.3C3 .5 3.7.1 4.8.1c1.9.1 2.7.4 2.7.4z" fill="#929BAF"/></symbol><symbol viewBox="0 0 16 16" fill="none" id="in" xmlns="http://www.w3.org/2000/svg"><path d="M8 0H4.7c-.9 0-1.4.2-1.9.4s-1 .5-1.4.9c-.4.4-.7.9-.9 1.4-.2.5-.3 1.1-.4 1.9v6.6c0 .9.2 1.4.4 1.9s.5 1 .9 1.4c.4.4.9.7 1.4.9.5.2 1.1.3 1.9.4h6.6c.9 0 1.4-.2 1.9-.4s1-.5 1.4-.9c.4-.4.7-.9.9-1.4.2-.5.3-1.1.4-1.9V4.6c0-.9-.2-1.4-.4-1.9s-.5-1-.9-1.4c-.4-.4-.9-.7-1.4-.9-.5-.2-1.1-.3-1.9-.4H8zm0 1.4h3.2c.8 0 1.2.2 1.5.3.4.1.6.3.9.6.3.3.5.5.6.9.1.3.2.7.3 1.5v6.4c0 .8-.2 1.2-.3 1.5-.1.4-.3.6-.6.9-.3.3-.5.5-.9.6-.3.1-.7.2-1.5.3H4.8c-.8 0-1.2-.2-1.5-.3-.4-.1-.6-.3-.9-.6-.3-.3-.5-.5-.6-.9-.1-.3-.2-.7-.3-1.5V4.7c0-.8.2-1.2.3-1.5.1-.4.3-.6.6-.9.3-.3.5-.5.9-.6.3-.1.7-.2 1.5-.3H8z" fill="#929BAF"/><path d="M8 10.7c-1.5 0-2.7-1.2-2.7-2.7 0-1.5 1.2-2.7 2.7-2.7 1.5 0 2.7 1.2 2.7 2.7 0 1.5-1.2 2.7-2.7 2.7zm0-6.8C5.7 3.9 3.9 5.7 3.9 8s1.8 4.1 4.1 4.1 4.1-1.8 4.1-4.1S10.3 3.9 8 3.9zm5.2-.2c0 .5-.4 1-1 1s-1-.4-1-1c0-.5.4-1 1-1s1 .5 1 1z" fill="#929BAF"/></symbol><symbol viewBox="0 0 10 13" fill="none" id="lock" xmlns="http://www.w3.org/2000/svg"><path d="M1 6V5a1 1 0 0 0-1 1h1zm8 0h1a1 1 0 0 0-1-1v1zm0 6v1a1 1 0 0 0 1-1H9zm-8 0H0a1 1 0 0 0 1 1v-1zm6-7a1 1 0 0 0 2 0H7zM1 5a1 1 0 0 0 2 0H1zm5 5a1 1 0 1 0-2 0h2zm-2 2a1 1 0 1 0 2 0H4zM1 7h8V5H1v2zm7-1v6h2V6H8zm1 5H1v2h8v-2zm-7 1V6H0v6h2zm7-7V3.9H7V5h2zm0-1.1C9 1.726 7.23 0 5 0v2c1.17 0 2 .874 2 1.9h2zM5 0C2.77 0 1 1.726 1 3.9h2C3 2.874 3.83 2 5 2V0zM1 3.9V5h2V3.9H1zM4 10v2h2v-2H4z" fill="#83C500"/></symbol><symbol viewBox="0 0 16 16" fill="none" id="new_window" xmlns="http://www.w3.org/2000/svg"><path d="M7 1H1v14h14V9m0-3V1h-5" stroke="#83C500" stroke-width="2" stroke-linejoin="round"/><path d="M8 8l7-7" stroke="#83C500" stroke-width="2" stroke-linecap="round" stroke-linejoin="round"/></symbol><symbol viewBox="0 0 19 20" fill="none" id="rub" xmlns="http://www.w3.org/2000/svg"><path d="M7.2 2.9h4.3c1.1 0 2 .4 2.7 1 .6.6 1 1.5 1 2.5 0 1.1-.3 2-1 2.6-.7.6-1.6.9-2.8.9H7.3v-7h-.1zm4.4 11.2H7.2v-1.4h4.3c2.2 0 4-.6 5.2-1.7 1.2-1.1 1.9-2.6 1.9-4.6 0-1.9-.7-3.4-2-4.6C15.3.7 13.5.1 11.3.1H3.7v9.7H.9v2.8h2.8V14H.9v2.8h2.8V20h3.4v-3.1h4.4v-2.8h.1z" fill="#1F2F3E"/></symbol><symbol viewBox="0 0 36 32" fill="none" id="serv_1" xmlns="http://www.w3.org/2000/svg"><path d="M22 5a1 1 0 1 0 2 0h-2zm1-4h1a1 1 0 0 0-1-1v1zM13 1V0a1 1 0 0 0-1 1h1zm-1 4a1 1 0 1 0 2 0h-2zM1.5 13a1 1 0 1 0 0 2v-2zm33 2a1 1 0 1 0 0-2v2zm-19 2a1 1 0 1 0 0 2v-2zm5 2a1 1 0 1 0 0-2v2zM5 26a1 1 0 1 0 0 2v-2zm26 2a1 1 0 1 0 0-2v2zM4 4c-.333 0-1.286.06-2.19.586C.826 5.158 0 6.23 0 8h2c0-1.03.424-1.458.815-1.686C3.285 6.041 3.833 6 4 6V4zM0 8v20h2V8H0zm0 20c0 .333.06 1.285.586 2.19C1.158 31.174 2.23 32 4 32v-2c-1.03 0-1.458-.424-1.686-.815C2.041 28.715 2 28.167 2 28H0zm4 4h28v-2H4v2zm28 0c.333 0 1.285-.06 2.19-.586C35.174 30.842 36 29.77 36 28h-2c0 1.03-.424 1.458-.815 1.686-.47.273-1.018.314-1.185.314v2zm4-4V8h-2v20h2zm0-20c0-.333-.06-1.286-.586-2.19C34.842 4.826 33.77 4 32 4v2c1.03 0 1.458.424 1.686.815.273.47.314 1.018.314 1.185h2zm-4-4H4v2h28V4zm-8 1V1h-2v4h2zm-1-5H13v2h10V0zM12 1v4h2V1h-2zM1.5 15h33v-2h-33v2zm14 4h5v-2h-5v2zM5 28h26v-2H5v2z" fill="#83C500"/></symbol><symbol viewBox="0 0 42 35" fill="none" id="serv_2" xmlns="http://www.w3.org/2000/svg"><path d="M4 32.1a1 1 0 1 0 0 2v-2zm34 2a1 1 0 1 0 0-2v2zm-34 0h34v-2H4v2zM25 22c0-2.252-1.748-4-4-4v2c1.148 0 2 .852 2 2h2zm-4-4c-2.252 0-4 1.748-4 4h2c0-1.148.852-2 2-2v-2zm10 0c-2.252 0-4 1.748-4 4h2c0-1.148.852-2 2-2v-2zm-16 4c0-2.252-1.748-4-4-4v2c1.148 0 2 .852 2 2h2zm12 0v12h2V22h-2zm-4 0v12h2V22h-2zm-6 0v12h2V22h-2zm-4 0v12h2V22h-2zm18-10v22h2V12h-2zM9 12v22h2V12H9zm4-3h16V7H13v2zM7 2h28V0H7v2zm5 5a5 5 0 0 1-5 5v2a7 7 0 0 0 7-7h-2zm-5 5a5 5 0 0 1-5-5H0a7 7 0 0 0 7 7v-2zM2 7a5 5 0 0 1 5-5V0a7 7 0 0 0-7 7h2zm5-5a5 5 0 0 1 5 5h2a7 7 0 0 0-7-7v2zm33 5a5 5 0 0 1-5 5v2a7 7 0 0 0 7-7h-2zm-5 5a5 5 0 0 1-5-5h-2a7 7 0 0 0 7 7v-2zm-5-5a5 5 0 0 1 5-5V0a7 7 0 0 0-7 7h2zm5-5a5 5 0 0 1 5 5h2a7 7 0 0 0-7-7v2z" fill="#83C500"/></symbol><symbol viewBox="0 0 40 36" fill="none" id="serv_3" xmlns="http://www.w3.org/2000/svg"><path d="M34 27a1 1 0 1 0 2 0h-2zM6 27a1 1 0 1 0 2 0H6zm-4-8a1 1 0 1 0 2 0H2zm0 7a1 1 0 1 0 0 2v-2zm36 2a1 1 0 1 0 0-2v2zM7 5a1 1 0 0 0 0 2V5zm28 2a1 1 0 1 0 0-2v2zM21 27a1 1 0 1 0-2 0h2zm-5.8 8l-.977-.212A1 1 0 0 0 15.2 36v-1zm9.6 0v1a1 1 0 0 0 .977-1.212L24.8 35zM6.96 21.958a1 1 0 1 0 1.079 1.684l-1.078-1.684zM15.101 18l.301-.954a1 1 0 0 0-.84.112L15.1 18zm5.6 1.9l-.346.938a.96.96 0 0 0 .104.032l.242-.97zm5.3-4.5l.666-.746a1 1 0 0 0-1.373.039L26 15.4zm7.634 8.146a1 1 0 0 0 1.332-1.492l-1.332 1.492zM1 34a1 1 0 1 0 0 2v-2zm38 2a1 1 0 1 0 0-2v2zM8 3c0-1.652-1.348-3-3-3v2c.548 0 1 .452 1 1h2zM5 0C3.348 0 2 1.348 2 3h2c0-.548.452-1 1-1V0zm31 3c0-1.652-1.348-3-3-3v2c.548 0 1 .452 1 1h2zm0 24V3h-2v24h2zM8 27V3H6v24h2zm-4-8V3H2v16h2zm-2 9h36v-2H2v2zM33 0H5v2h28V0zM7 7h28V5H7v2zm12 20v4h2v-4h-2zm-3.8 9h9.6v-2h-9.6v2zm10.577-1.212C25.187 32.073 22.915 30 20 30v2c1.885 0 3.413 1.327 3.823 3.212l1.954-.424zM20 30c-2.915 0-5.187 2.073-5.777 4.788l1.954.424C16.587 33.327 18.115 32 20 32v-2zM8.04 23.642a501.5 501.5 0 0 1 3.792-2.395c1.274-.8 2.553-1.602 3.807-2.405l-1.078-1.684a497.577 497.577 0 0 1-3.793 2.395 500.51 500.51 0 0 0-3.807 2.405l1.078 1.684zm6.759-4.688c1.89.596 3.674 1.191 5.555 1.884l.692-1.876a124.112 124.112 0 0 0-5.645-1.916l-.602 1.908zm5.659 1.916c.648.162 1.44.046 1.95-.463l-1.415-1.414a.301.301 0 0 1 .075-.058c.01-.005.01-.003-.003 0a.313.313 0 0 1-.123-.005l-.485 1.94zm1.95-.463l2.15-2.15 2.15-2.15-1.415-1.414-2.15 2.15-2.15 2.15 1.414 1.414zm2.926-4.261c1.4 1.25 2.776 2.476 4.15 3.7 1.376 1.226 2.75 2.45 4.15 3.7l1.332-1.492c-1.4-1.25-2.776-2.476-4.15-3.7-1.376-1.226-2.75-2.45-4.15-3.7l-1.332 1.492zM1 36h38v-2H1v2z" fill="#83C500"/></symbol><symbol viewBox="0 0 32 38" fill="none" id="serv_4" xmlns="http://www.w3.org/2000/svg"><path d="M24 14a1 1 0 1 0 2 0h-2zm1-6h1a1 1 0 0 0-1-1v1zM1 8V7a1 1 0 0 0-1 1h1zm0 29H0a1 1 0 0 0 1 1v-1zm24 0v1a1 1 0 0 0 1-1h-1zm1-5a1 1 0 1 0-2 0h2zM15 4a1 1 0 1 0 2 0h-2zM9 4a1 1 0 1 0 2 0H9zM3 3a1 1 0 0 0 0 2V3zm20 2a1 1 0 1 0 0-2v2zm-2.993 16.993a1 1 0 0 0-1.414 1.414l1.414-1.414zM22 25.4l-.707.707.707.707.707-.707L22 25.4zm9.407-7.993a1 1 0 0 0-1.414-1.414l1.414 1.414zM5 14a1 1 0 1 0 0 2v-2zm12.6 2a1 1 0 1 0 0-2v2zM5 18a1 1 0 1 0 0 2v-2zm8 2a1 1 0 1 0 0-2v2zm-8 2a1 1 0 1 0 0 2v-2zm7 2a1 1 0 1 0 0-2v2zm-7 2a1 1 0 1 0 0 2v-2zm8 2a1 1 0 1 0 0-2v2zm13-14V8h-2v6h2zm-1-7H1v2h24V7zM0 8v29h2V8H0zm1 30h24v-2H1v2zm25-1v-5h-2v5h2zM17 4c0-2.252-1.748-4-4-4v2c1.148 0 2 .852 2 2h2zm-4-4c-2.252 0-4 1.748-4 4h2c0-1.148.852-2 2-2V0zM3 5h20V3H3v2zm27 18a8 8 0 0 1-8 8v2c5.523 0 10-4.477 10-10h-2zm-8 8a8 8 0 0 1-8-8h-2c0 5.523 4.477 10 10 10v-2zm-8-8a8 8 0 0 1 8-8v-2c-5.523 0-10 4.477-10 10h2zm8-8a8 8 0 0 1 8 8h2c0-5.523-4.477-10-10-10v2zM5 16h12.6v-2H5v2zm0 4h8v-2H5v2zm0 4h7v-2H5v2zm0 4h8v-2H5v2zm13.593-4.593l2.7 2.7 1.414-1.414-2.7-2.7-1.414 1.414zm4.114 2.7l8.7-8.7-1.414-1.414-8.7 8.7 1.414 1.414z" fill="#83C500"/></symbol><symbol viewBox="0 0 44 32" fill="none" id="serv_5" xmlns="http://www.w3.org/2000/svg"><path d="M5 24H4v1h1v-1zm34 0v1h1v-1h-1zm-21 5a1 1 0 1 0 0-2v2zM1 28v-1H0v1h1zm42 0h1v-1h-1v1zm-17-1a1 1 0 1 0 0 2v-2zM9 15a1 1 0 1 0 0 2v-2zm16 2a1 1 0 1 0 0-2v2zM9 18a1 1 0 1 0 0 2v-2zm9 2a1 1 0 1 0 0-2v2zM7 0c-.343 0-1.058.062-1.72.478C4.545.94 4 1.764 4 3h2c0-.308.063-.489.12-.593a.626.626 0 0 1 .225-.235C6.558 2.038 6.843 2 7 2V0zM4 3v21h2V3H4zm1 22h34v-2H5v2zm35-1V3h-2v21h2zm0-21c0-.343-.062-1.058-.478-1.72C39.06.545 38.236 0 37 0v2c.308 0 .489.063.593.12a.627.627 0 0 1 .235.225c.134.213.172.498.172.655h2zm-3-3H7v2h30V0zM18 27H1v2h17v-2zM0 28v1h2v-1H0zm0 1c0 .343.062 1.058.478 1.72C.94 31.455 1.764 32 3 32v-2c-.308 0-.489-.063-.593-.12a.625.625 0 0 1-.235-.225C2.038 29.442 2 29.157 2 29H0zm3 3h38v-2H3v2zm38 0c.343 0 1.058-.062 1.72-.478C43.455 31.06 44 30.236 44 29h-2c0 .308-.063.489-.12.593a.626.626 0 0 1-.225.235c-.213.134-.498.172-.655.172v2zm3-3v-1h-2v1h2zm-1-2H26v2h17v-2zM9 17h16v-2H9v2zm0 3h9v-2H9v2z" fill="#83C500"/></symbol><symbol viewBox="0 0 40 40" fill="none" id="serv_6" xmlns="http://www.w3.org/2000/svg"><path d="M24.4 24.4l-.707-.707-.005.004.712.703zm-17.9 9l-.707.707.008.008.009.008.69-.723zm17.9-17.8l-.707.707.004.005.703-.712zm-7.274 18.823a1 1 0 1 0-1.852.754l1.852-.754zm7.6.754a1 1 0 1 0-1.852-.754l1.852.754zm-1.852-29.6a1 1 0 0 0 1.852-.754l-1.852.754zm-7.6-.754a1 1 0 1 0 1.852.754l-1.852-.754zm19.149 18.05a1 1 0 1 0 .754 1.853l-.754-1.852zm.754-7.6a1 1 0 1 0-.754 1.853l.754-1.852zm-29.6 1.853a1 1 0 1 0-.754-1.852l.754 1.852zm-.754 7.6a1 1 0 1 0 .754-1.852l-.754 1.852zm20.284.381c4.013-4.013 6.863-8.055 8.447-11.404.79-1.67 1.286-3.213 1.43-4.521.141-1.273-.032-2.544-.877-3.39l-1.414 1.415c.205.205.42.709.304 1.755-.112 1.01-.516 2.33-1.251 3.886-1.466 3.1-4.166 6.958-8.053 10.845l1.414 1.414zm9-19.314c-.845-.845-2.116-1.018-3.389-.878-1.308.145-2.85.641-4.52 1.431-3.35 1.584-7.392 4.434-11.405 8.447l1.414 1.414c3.887-3.887 7.745-6.587 10.845-8.053 1.555-.735 2.875-1.139 3.886-1.25 1.046-.116 1.55.098 1.755.303l1.414-1.414zm-19.314 9c-4.013 4.013-6.863 8.055-8.447 11.405-.79 1.67-1.286 3.212-1.43 4.52-.141 1.273.032 2.544.877 3.39l1.414-1.415c-.205-.205-.42-.709-.304-1.755.112-1.01.516-2.33 1.251-3.886 1.466-3.1 4.166-6.958 8.053-10.845l-1.414-1.414zM5.81 34.123c.86.821 2.121 1.01 3.407.876 1.314-.135 2.855-.622 4.521-1.407 3.342-1.573 7.36-4.425 11.374-8.49l-1.423-1.405c-3.887 3.936-7.719 6.634-10.802 8.086-1.547.728-2.862 1.122-3.876 1.227-1.042.108-1.58-.104-1.82-.333L5.81 34.123zm19.297-19.23c-4.013-4.013-8.055-6.863-11.404-8.447-1.67-.79-3.213-1.286-4.521-1.43-1.273-.141-2.544.032-3.39.877l1.415 1.414c.205-.205.709-.42 1.755-.304 1.01.112 2.33.516 3.886 1.251 3.1 1.466 6.958 4.166 10.845 8.053l1.414-1.414zm-19.314-9c-.845.845-1.018 2.116-.878 3.389.145 1.308.641 2.85 1.431 4.52 1.584 3.35 4.434 7.392 8.447 11.405l1.414-1.414c-3.887-3.887-6.587-7.745-8.053-10.845-.735-1.555-1.139-2.875-1.25-3.886-.116-1.046.098-1.55.303-1.755L5.793 5.893zm9 19.314c4.013 4.013 8.055 6.863 11.405 8.447 1.67.79 3.212 1.286 4.52 1.43 1.273.141 2.544-.032 3.39-.877l-1.415-1.414c-.205.205-.709.42-1.755.304-1.01-.112-2.33-.516-3.886-1.251-3.1-1.466-6.958-4.166-10.845-8.053l-1.414 1.414zm19.314 9c.842-.841 1.025-2.107.892-3.382-.136-1.31-.622-2.853-1.406-4.525-1.573-3.352-4.425-7.397-8.49-11.412l-1.406 1.423c3.935 3.886 6.633 7.741 8.085 10.839.729 1.553 1.123 2.872 1.228 3.881.108 1.044-.108 1.553-.317 1.762l1.414 1.414zm-18.833.97c.577 1.417 1.257 2.581 2.012 3.41C18.03 39.401 18.953 40 20 40v-2c-.253 0-.68-.152-1.236-.761-.545-.597-1.115-1.533-1.638-2.816l-1.852.754zM20 40c1.047 0 1.97-.598 2.714-1.413.755-.829 1.435-1.993 2.012-3.41l-1.852-.754c-.523 1.283-1.093 2.219-1.638 2.816-.556.61-.983.761-1.236.761v2zm4.726-35.177c-.577-1.417-1.257-2.581-2.012-3.41C21.97.599 21.047 0 20 0v2c.253 0 .68.152 1.236.761.545.597 1.115 1.533 1.638 2.816l1.852-.754zM20 0c-1.047 0-1.97.598-2.714 1.414-.755.828-1.435 1.992-2.012 3.409l1.852.754c.523-1.283 1.093-2.219 1.638-2.816C19.32 2.151 19.747 2 20 2V0zm15.177 24.726c1.417-.577 2.581-1.257 3.41-2.012C39.401 21.97 40 21.047 40 20h-2c0 .253-.152.68-.761 1.236-.597.545-1.533 1.115-2.816 1.638l.754 1.852zM40 20c0-1.047-.598-1.97-1.413-2.714-.829-.755-1.993-1.435-3.41-2.012l-.754 1.852c1.283.523 2.219 1.093 2.816 1.638.61.556.761.983.761 1.236h2zM4.823 15.274c-1.417.577-2.581 1.257-3.41 2.012C.599 18.03 0 18.953 0 20h2c0-.253.152-.68.761-1.236.597-.545 1.533-1.115 2.816-1.638l-.754-1.852zM0 20c0 1.047.598 1.97 1.414 2.714.828.755 1.992 1.435 3.409 2.012l.754-1.852c-1.283-.523-2.219-1.093-2.816-1.638C2.151 20.68 2 20.253 2 20H0z" fill="#83C500"/></symbol><symbol viewBox="0 0 9 14" fill="none" id="telegram" xmlns="http://www.w3.org/2000/svg"><path d="M7 13c-.8.4-2.6 1.5-5.4-4.5-2.9-5.9-.9-6.8-.2-7.2l1-.5 1.7 3.5-1 .5C2 5.4 4.3 10 5.4 9.5l1-.5 1.7 3.5c-.1-.1-1.1.4-1.1.5z" fill="#fff"/></symbol><symbol viewBox="0 0 17 10" fill="none" id="vk" xmlns="http://www.w3.org/2000/svg"><path d="M15.2 9.5h-2.1s-.5.1-1.1-.3c-.8-.5-1.5-1.9-2.1-1.8-.6.2-.6 1.5-.6 1.5s0 .3-.1.4c-.1.2-.4.2-.4.2h-.9S5.8 9.6 4 7.7C2 5.6.2 1.5.2 1.5s-.1-.3 0-.4C.3 1 .7.9.7.9H3s.2 0 .4.1c.1.1.2.3.2.3l.8 1.8c.9 1.6 1.4 2 1.7 1.8.5-.3.3-2.3.3-2.3s0-.7-.2-1.1c-.2-.3-.5-.3-.7-.4-.1 0 .1-.3.4-.4.4-.2 1.1-.2 2-.2.7 0 .9 0 1.1.1.8.2.5.9.5 2.7 0 .6-.1 1.3.3 1.6.2.1.6 0 1.7-1.8.5-.9.9-1.9.9-1.9s.1-.2.2-.3c.1-.1.3-.1.3-.1h2.4s.7-.1.8.2c.1.3-.3 1.1-1.2 2.4-1.6 2.1-1.8 1.9-.4 3.2 1.3 1.2 1.5 1.7 1.6 1.8.2 1-.9 1.1-.9 1.1z" fill="#929BAF"/></symbol><symbol viewBox="0 0 18 12" fill="none" id="youtube" xmlns="http://www.w3.org/2000/svg"><path d="M17.4 2.6s-.2-1.2-.7-1.7C16.1.2 15.3.2 15 .2 12.6 0 9 0 9 0S5.4 0 3 .2c-.3 0-1.1 0-1.7.7-.5.5-.7 1.7-.7 1.7S.4 4 .4 5.4v1.3c0 1.4.2 2.8.2 2.8s.2 1.2.7 1.7c.6.7 1.5.7 1.9.7C4.6 12 9 12 9 12s3.6 0 6-.2c.3 0 1.1 0 1.7-.7.5-.5.7-1.7.7-1.7s.2-1.4.2-2.8V5.3c-.1-1.3-.2-2.7-.2-2.7zM7.2 8.2V3.4l4.6 2.4-4.6 2.4z" fill="#929BAF"/></symbol></svg>