<svg width="40" height="40" viewBox="0 0 40 40" fill="none" xmlns="http://www.w3.org/2000/svg">
<rect width="40" height="40" rx="8" fill="#83C500"/>
<path d="M10.0001 5.1665C10.5524 5.1665 11.0001 4.71879 11.0001 4.1665C11.0001 3.61422 10.5524 3.1665 10.0001 3.1665V5.1665ZM3.16675 9.99984C3.16675 10.5521 3.61446 10.9998 4.16675 10.9998C4.71903 10.9998 5.16675 10.5521 5.16675 9.99984H3.16675ZM5.16675 29.9998C5.16675 29.4476 4.71903 28.9998 4.16675 28.9998C3.61446 28.9998 3.16675 29.4476 3.16675 29.9998H5.16675ZM10.0001 36.8332C10.5524 36.8332 11.0001 36.3855 11.0001 35.8332C11.0001 35.2809 10.5524 34.8332 10.0001 34.8332V36.8332ZM30.0001 34.8332C29.4478 34.8332 29.0001 35.2809 29.0001 35.8332C29.0001 36.3855 29.4478 36.8332 30.0001 36.8332V34.8332ZM36.8334 29.9998C36.8334 29.4476 36.3857 28.9998 35.8334 28.9998C35.2811 28.9998 34.8334 29.4476 34.8334 29.9998H36.8334ZM34.8334 9.99984C34.8334 10.5521 35.2811 10.9998 35.8334 10.9998C36.3857 10.9998 36.8334 10.5521 36.8334 9.99984H34.8334ZM30.0001 3.1665C29.4478 3.1665 29.0001 3.61422 29.0001 4.1665C29.0001 4.71879 29.4478 5.1665 30.0001 5.1665V3.1665ZM10.0001 3.1665H6.66675V5.1665H10.0001V3.1665ZM6.66675 3.1665C6.37571 3.1665 5.5479 3.21735 4.7576 3.67716C3.88894 4.18256 3.16675 5.13008 3.16675 6.6665H5.16675C5.16675 5.8696 5.48623 5.56711 5.76339 5.40585C6.11893 5.19899 6.54112 5.1665 6.66675 5.1665V3.1665ZM3.16675 6.6665V9.99984H5.16675V6.6665H3.16675ZM3.16675 29.9998V33.3332H5.16675V29.9998H3.16675ZM3.16675 33.3332C3.16675 33.6242 3.21759 34.452 3.6774 35.2423C4.18281 36.111 5.13032 36.8332 6.66675 36.8332V34.8332C5.86984 34.8332 5.56736 34.5137 5.4061 34.2365C5.19924 33.881 5.16675 33.4588 5.16675 33.3332H3.16675ZM6.66675 36.8332H10.0001V34.8332H6.66675V36.8332ZM30.0001 36.8332H33.3334V34.8332H30.0001V36.8332ZM33.3334 36.8332C33.6245 36.8332 34.4523 36.7823 35.2426 36.3225C36.1112 35.8171 36.8334 34.8696 36.8334 33.3332H34.8334C34.8334 34.1301 34.5139 34.4326 34.2368 34.5938C33.8812 34.8007 33.459 34.8332 33.3334 34.8332V36.8332ZM36.8334 33.3332V29.9998H34.8334V33.3332H36.8334ZM36.8334 9.99984V6.6665H34.8334V9.99984H36.8334ZM36.8334 6.6665C36.8334 6.37546 36.7826 5.54766 36.3228 4.75736C35.8174 3.88869 34.8698 3.1665 33.3334 3.1665V5.1665C34.1303 5.1665 34.4328 5.48598 34.5941 5.76315C34.8009 6.11868 34.8334 6.54088 34.8334 6.6665H36.8334ZM33.3334 3.1665H30.0001V5.1665H33.3334V3.1665Z" fill="white"/>
<path d="M12.5 16.6668L11.8861 15.8775C11.5488 16.1398 11.4155 16.5873 11.5541 16.9914C11.6928 17.3954 12.0728 17.6668 12.5 17.6668V16.6668ZM20 10.8335H21C21 10.4516 20.7824 10.103 20.4394 9.93518C20.0963 9.76738 19.6875 9.80966 19.3861 10.0441L20 10.8335ZM27.5 17.6668C28.0523 17.6668 28.5 17.2191 28.5 16.6668C28.5 16.1145 28.0523 15.6668 27.5 15.6668V17.6668ZM27.5 23.3335L28.1139 24.1228C28.4512 23.8606 28.5845 23.413 28.4459 23.009C28.3072 22.6049 27.9272 22.3335 27.5 22.3335L27.5 23.3335ZM20 29.1668L19 29.1668C19 29.5488 19.2176 29.8973 19.5606 30.0651C19.9037 30.2329 20.3125 30.1907 20.6139 29.9562L20 29.1668ZM12.5 22.3335C11.9477 22.3335 11.5 22.7812 11.5 23.3335C11.5 23.8858 11.9477 24.3335 12.5 24.3335L12.5 22.3335ZM12.5 19.0002C11.9477 19.0002 11.5 19.4479 11.5 20.0002C11.5 20.5524 11.9477 21.0002 12.5 21.0002L12.5 19.0002ZM27.5 21.0002C28.0523 21.0002 28.5 20.5524 28.5 20.0002C28.5 19.4479 28.0523 19.0002 27.5 19.0002L27.5 21.0002ZM13.1139 17.4562L20.6139 11.6228L19.3861 10.0441L11.8861 15.8775L13.1139 17.4562ZM27.5 15.6668H20V17.6668H27.5V15.6668ZM20 15.6668H12.5V17.6668H20V15.6668ZM19 10.8335V16.6668H21V10.8335H19ZM26.8861 22.5441L19.3861 28.3775L20.6139 29.9562L28.1139 24.1228L26.8861 22.5441ZM12.5 24.3335L20 24.3335L20 22.3335L12.5 22.3335L12.5 24.3335ZM20 24.3335L27.5 24.3335L27.5 22.3335L20 22.3335L20 24.3335ZM21 29.1668L21 23.3335L19 23.3335L19 29.1668L21 29.1668ZM12.5 21.0002L27.5 21.0002L27.5 19.0002L12.5 19.0002L12.5 21.0002Z" fill="white"/>
</svg>
