<svg width="96" height="16" viewBox="0 0 96 16" fill="none" xmlns="http://www.w3.org/2000/svg">
<path fill-rule="evenodd" clip-rule="evenodd" d="M59 0L51.3 7.3999V9.80005H57.7V16H60.5V7.30005H55.1001L60.8 1.80005L59 0ZM84.1001 8.1001C84.1001 11 81.8 12.9001 78.3 12.9001C74.7 12.9001 72.5 11 72.5 8C72.5 5.19995 74.8999 3.30005 78.3 3.30005C81.8 3.30005 84.1001 5.19995 84.1001 8.1001ZM75.3999 8.1001C75.3999 9.80005 76.5 10.9001 78.3 10.9001C80 10.9001 81.1001 9.80005 81.1001 8.1001C81.1001 6.30005 80 5.30005 78.3 5.30005C76.5 5.30005 75.3999 6.40015 75.3999 8.1001ZM65.8999 12.5L61.3999 3.6001H64.5999L67.2998 9.5L70 3.6001H72.8999L67.0999 16H64.2C64.2 16 65.5999 13 65.8999 12.5ZM90.2002 10.4001C91.4001 10.4001 92.4001 9.5 92.4001 8.30005V3.6001H95.3V8C95.3 10.7002 92.8 12.8 90.2002 12.8C87.6001 12.8 85.1001 10.6001 85.1001 8V3.6001H88V8.30005C88 9.40015 89 10.4001 90.2002 10.4001ZM51.1001 3.6001H47.5L45.6001 6L43.8999 3.6001H40.3999L43.8999 8L39.8999 12.6001H43.6001L45.6001 10.1001L47.7 12.6001H51.3999L47.3 8.1001L51.1001 3.6001ZM16.3999 10.7002C14.7 10.7002 13.7 9.7002 13.7 8.1001C13.7 6.5 14.7 5.40015 16.3999 5.40015C18 5.40015 19.1001 6.40015 19.1001 8C19.1001 9.6001 18 10.7002 16.3999 10.7002ZM16.3 3.30005C12.7 3.30005 10.6001 5.2002 10.6001 8.1001C10.6001 11 12.8 12.9001 16.3 12.9001C19.8999 12.9001 22 11 22 8.1001C22 5.1001 19.8999 3.30005 16.3 3.30005ZM25.7 3.6001V4.80005C26.5 3.80005 27.3999 3.30005 28.3999 3.30005C28.6001 3.30005 29 3.40015 29.2 3.40015V5.6001H28.3C26.7 5.6001 25.7 6.7002 25.7 8.5V12.5H22.8999V3.6001H25.7ZM32.7 7C32.8 5.90015 33.7 5.2002 35 5.2002C36.3 5.2002 37.1001 5.90015 37.2 7H32.7ZM34.8999 3.30005C31.5 3.30005 29.5 5.2002 29.5 8.1001C29.5 11 31.6001 12.9001 34.8999 12.9001C37.6001 12.9001 39.5 11.7002 40.2 9.7002H37.1001C36.8 10.5 36 11 34.8999 11C33.5 11 32.6001 10.1001 32.6001 8.80005H40.3V8.40015C40.3 5.1001 38.3999 3.30005 34.8999 3.30005ZM0 12.6001V0.600098H10.3V3H3V5.30005H9.69995V7.80005H3V12.6001H0Z" fill="#929BAF"/>
</svg>
