<svg width="16" height="16" viewBox="0 0 16 16" fill="none" xmlns="http://www.w3.org/2000/svg">
<path d="M8.00009 0C5.80009 0 5.6001 0 4.7001 0C3.8001 0 3.30008 0.2 2.80008 0.4C2.30008 0.6 1.80009 0.9 1.40009 1.3C1.00009 1.7 0.700092 2.2 0.500092 2.7C0.300092 3.2 0.200098 3.8 0.100098 4.6C0.100098 5.5 0.100098 5.7 0.100098 7.9C0.100098 10.1 0.100098 10.3 0.100098 11.2C0.100098 12.1 0.300092 12.6 0.500092 13.1C0.700092 13.6 1.00009 14.1 1.40009 14.5C1.80009 14.9 2.30008 15.2 2.80008 15.4C3.30008 15.6 3.9001 15.7 4.7001 15.8C5.6001 15.8 5.80009 15.8 8.00009 15.8C10.2001 15.8 10.4001 15.8 11.3001 15.8C12.2001 15.8 12.7001 15.6 13.2001 15.4C13.7001 15.2 14.2001 14.9 14.6001 14.5C15.0001 14.1 15.3001 13.6 15.5001 13.1C15.7001 12.6 15.8001 12 15.9001 11.2C15.9001 10.3 15.9001 10.1 15.9001 7.9C15.9001 5.7 15.9001 5.5 15.9001 4.6C15.9001 3.7 15.7001 3.2 15.5001 2.7C15.3001 2.2 15.0001 1.7 14.6001 1.3C14.2001 0.9 13.7001 0.6 13.2001 0.4C12.7001 0.2 12.1001 0.1 11.3001 0C10.4001 0 10.2001 0 8.00009 0ZM8.00009 1.4C10.1001 1.4 10.4001 1.4 11.2001 1.4C12.0001 1.4 12.4001 1.6 12.7001 1.7C13.1001 1.8 13.3001 2 13.6001 2.3C13.9001 2.6 14.1001 2.8 14.2001 3.2C14.3001 3.5 14.4001 3.9 14.5001 4.7C14.5001 5.5 14.5001 5.8 14.5001 7.9C14.5001 10 14.5001 10.3 14.5001 11.1C14.5001 11.9 14.3001 12.3 14.2001 12.6C14.1001 13 13.9001 13.2 13.6001 13.5C13.3001 13.8 13.1001 14 12.7001 14.1C12.4001 14.2 12.0001 14.3 11.2001 14.4C10.4001 14.4 10.1001 14.4 8.00009 14.4C5.90009 14.4 5.60008 14.4 4.80008 14.4C4.00008 14.4 3.60008 14.2 3.30008 14.1C2.90008 14 2.70009 13.8 2.40009 13.5C2.10009 13.2 1.90008 13 1.80008 12.6C1.70008 12.3 1.60009 11.9 1.50009 11.1C1.50009 10.3 1.50009 10 1.50009 7.9C1.50009 5.8 1.50009 5.5 1.50009 4.7C1.50009 3.9 1.70008 3.5 1.80008 3.2C1.90008 2.8 2.10009 2.6 2.40009 2.3C2.70009 2 2.90008 1.8 3.30008 1.7C3.60008 1.6 4.00008 1.5 4.80008 1.4C5.60008 1.4 5.90009 1.4 8.00009 1.4Z" fill="#929BAF"/>
<path d="M8.00015 10.7C6.50015 10.7 5.30014 9.50002 5.30014 8.00002C5.30014 6.50002 6.50015 5.30002 8.00015 5.30002C9.50015 5.30002 10.7002 6.50002 10.7002 8.00002C10.7002 9.50002 9.50015 10.7 8.00015 10.7ZM8.00015 3.90002C5.70015 3.90002 3.90015 5.70002 3.90015 8.00002C3.90015 10.3 5.70015 12.1 8.00015 12.1C10.3002 12.1 12.1002 10.3 12.1002 8.00002C12.1002 5.70002 10.3002 3.90002 8.00015 3.90002Z" fill="#929BAF"/>
<path d="M13.2001 3.70001C13.2001 4.20001 12.8001 4.70001 12.2001 4.70001C11.6001 4.70001 11.2001 4.30001 11.2001 3.70001C11.2001 3.20001 11.6001 2.70001 12.2001 2.70001C12.8001 2.70001 13.2001 3.20001 13.2001 3.70001Z" fill="#929BAF"/>
</svg>
