<svg width="36" height="32" viewBox="0 0 36 32" fill="none" xmlns="http://www.w3.org/2000/svg">
<path d="M22 5C22 5.55228 22.4477 6 23 6C23.5523 6 24 5.55228 24 5H22ZM23 1H24C24 0.447715 23.5523 0 23 0V1ZM13 1V0C12.4477 0 12 0.447715 12 1L13 1ZM12 5C12 5.55228 12.4477 6 13 6C13.5523 6 14 5.55228 14 5H12ZM1.5 13C0.947715 13 0.5 13.4477 0.5 14C0.5 14.5523 0.947715 15 1.5 15V13ZM34.5 15C35.0523 15 35.5 14.5523 35.5 14C35.5 13.4477 35.0523 13 34.5 13V15ZM15.5 17C14.9477 17 14.5 17.4477 14.5 18C14.5 18.5523 14.9477 19 15.5 19V17ZM20.5 19C21.0523 19 21.5 18.5523 21.5 18C21.5 17.4477 21.0523 17 20.5 17V19ZM5 26C4.44772 26 4 26.4477 4 27C4 27.5523 4.44772 28 5 28V26ZM31 28C31.5523 28 32 27.5523 32 27C32 26.4477 31.5523 26 31 26V28ZM4 4C3.66729 4 2.71449 4.05918 1.80961 4.58565C0.826354 5.15773 0 6.23024 0 8H2C2 6.96976 2.42365 6.54227 2.81539 6.31435C3.28551 6.04082 3.83271 6 4 6V4ZM0 8V28H2V8H0ZM0 28C0 28.3327 0.0591756 29.2855 0.585652 30.1904C1.15773 31.1736 2.23024 32 4 32V30C2.96976 30 2.54227 29.5764 2.31435 29.1846C2.04082 28.7145 2 28.1673 2 28H0ZM4 32H32V30H4V32ZM32 32C32.3327 32 33.2855 31.9408 34.1904 31.4143C35.1736 30.8423 36 29.7698 36 28H34C34 29.0302 33.5764 29.4577 33.1846 29.6857C32.7145 29.9592 32.1673 30 32 30V32ZM36 28V8H34V28H36ZM36 8C36 7.66729 35.9408 6.71449 35.4143 5.80961C34.8423 4.82635 33.7698 4 32 4V6C33.0302 6 33.4577 6.42365 33.6856 6.81539C33.9592 7.28551 34 7.83271 34 8H36ZM32 4H4V6H32V4ZM24 5V1H22V5H24ZM23 0H13V2H23V0ZM12 1V5H14V1H12ZM1.5 15H34.5V13H1.5V15ZM15.5 19H20.5V17H15.5V19ZM5 28H31V26H5V28Z" fill="#83C500"/>
</svg>
