<svg width="18" height="16" viewBox="0 0 18 16" fill="none" xmlns="http://www.w3.org/2000/svg">
<path class="nrectClass" d="M17.4999 1.2L14.7998 14.8C14.7998 14.8 14.3999 15.7 13.3999 15.3L7.19987 10.5L4.89989 9.4L1.09984 8.1C1.09984 8.1 0.499861 7.9 0.499861 7.4C0.399861 6.9 1.19987 6.7 1.19987 6.7L16.2998 0.800003C16.2998 0.800003 17.4999 0.300003 17.4999 1.2Z" fill="white"/>
<path d="M6.69989 14.6C6.69989 14.6 6.49987 14.6 6.29987 13.9C6.09987 13.2 4.8999 9.40001 4.8999 9.40001L13.9999 3.60001C13.9999 3.60001 14.4999 3.30001 14.4999 3.60001C14.4999 3.60001 14.5999 3.70001 14.2999 3.90001C13.9999 4.20001 7.09985 10.3 7.09985 10.3" stroke="#EFF0F2" />
<path d="M9.59991 12.3L7.09991 14.5C7.09991 14.5 6.89995 14.6 6.69995 14.6L7.19995 10.4" stroke="#EFF0F2"/>
</svg>

