<svg width="19" height="20" viewBox="0 0 19 20" fill="none" xmlns="http://www.w3.org/2000/svg">
<path d="M7.1999 2.9001H11.4999C12.5999 2.9001 13.4999 3.3001 14.1999 3.9001C14.7999 4.5001 15.1999 5.4001 15.1999 6.4001C15.1999 7.5001 14.8999 8.4001 14.1999 9.0001C13.4999 9.6001 12.5999 9.9001 11.3999 9.9001H7.2999V2.9001H7.1999ZM11.5999 14.1001H7.1999V12.7001H11.4999C13.6999 12.7001 15.4999 12.1001 16.6999 11.0001C17.8999 9.9001 18.5999 8.4001 18.5999 6.4001C18.5999 4.5001 17.8999 3.0001 16.5999 1.8001C15.2999 0.700096 13.4999 0.100098 11.2999 0.100098H3.6999V9.8001H0.899902V12.6001H3.6999V14.0001H0.899902V16.8001H3.6999V20.0001H7.0999V16.9001H11.4999V14.1001H11.5999Z" fill="#1F2F3E"/>
</svg>
