<svg width="44" height="32" viewBox="0 0 44 32" fill="none" xmlns="http://www.w3.org/2000/svg">
<path d="M5 24H4V25H5V24ZM39 24V25H40V24H39ZM18 29C18.5523 29 19 28.5523 19 28C19 27.4477 18.5523 27 18 27V29ZM1 28V27H0V28H1ZM43 28H44V27H43V28ZM26 27C25.4477 27 25 27.4477 25 28C25 28.5523 25.4477 29 26 29V27ZM9 15C8.44772 15 8 15.4477 8 16C8 16.5523 8.44772 17 9 17V15ZM25 17C25.5523 17 26 16.5523 26 16C26 15.4477 25.5523 15 25 15V17ZM9 18C8.44772 18 8 18.4477 8 19C8 19.5523 8.44772 20 9 20V18ZM18 20C18.5523 20 19 19.5523 19 19C19 18.4477 18.5523 18 18 18V20ZM7 0C6.65679 0 5.94212 0.06238 5.28033 0.478363C4.54518 0.940455 4 1.76388 4 3H6C6 2.69201 6.06307 2.51141 6.11989 2.40733C6.17633 2.30395 6.25163 2.23012 6.34467 2.17164C6.55788 2.03762 6.84321 2 7 2V0ZM4 3V24H6V3H4ZM5 25H39V23H5V25ZM40 24V3H38V24H40ZM40 3C40 2.65679 39.9376 1.94212 39.5216 1.28033C39.0595 0.545183 38.2361 0 37 0V2C37.308 2 37.4886 2.06307 37.5927 2.11989C37.696 2.17633 37.7699 2.25163 37.8284 2.34467C37.9624 2.55788 38 2.84321 38 3H40ZM37 0H7V2H37V0ZM18 27H1V29H18V27ZM0 28V29H2V28H0ZM0 29C0 29.3432 0.06238 30.0579 0.478363 30.7197C0.940455 31.4548 1.76388 32 3 32V30C2.69201 30 2.51141 29.9369 2.40733 29.8801C2.30395 29.8237 2.23012 29.7484 2.17164 29.6553C2.03762 29.4421 2 29.1568 2 29H0ZM3 32H41V30H3V32ZM41 32C41.3432 32 42.0579 31.9376 42.7197 31.5216C43.4548 31.0595 44 30.2361 44 29H42C42 29.308 41.9369 29.4886 41.8801 29.5927C41.8237 29.696 41.7484 29.7699 41.6553 29.8284C41.4421 29.9624 41.1568 30 41 30V32ZM44 29V28H42V29H44ZM43 27H26V29H43V27ZM9 17H25V15H9V17ZM9 20H18V18H9V20Z" fill="#83C500"/>
</svg>
