<svg width="40" height="36" viewBox="0 0 40 36" fill="none" xmlns="http://www.w3.org/2000/svg">
<path d="M34 27C34 27.5523 34.4477 28 35 28C35.5523 28 36 27.5523 36 27H34ZM6 27C6 27.5523 6.44772 28 7 28C7.55228 28 8 27.5523 8 27H6ZM2 19C2 19.5523 2.44772 20 3 20C3.55228 20 4 19.5523 4 19H2ZM2 26C1.44772 26 1 26.4477 1 27C1 27.5523 1.44772 28 2 28V26ZM38 28C38.5523 28 39 27.5523 39 27C39 26.4477 38.5523 26 38 26V28ZM7 5C6.44772 5 6 5.44772 6 6C6 6.55228 6.44772 7 7 7V5ZM35 7C35.5523 7 36 6.55228 36 6C36 5.44772 35.5523 5 35 5V7ZM21 27C21 26.4477 20.5523 26 20 26C19.4477 26 19 26.4477 19 27H21ZM15.2 35L14.2228 34.7876C14.1586 35.0832 14.2316 35.392 14.4214 35.6275C14.6112 35.8631 14.8975 36 15.2 36V35ZM24.8 35V36C25.1025 36 25.3888 35.8631 25.5786 35.6275C25.7684 35.392 25.8414 35.0832 25.7772 34.7876L24.8 35ZM6.96095 21.9578C6.49577 22.2555 6.36002 22.8739 6.65773 23.3391C6.95544 23.8043 7.57388 23.94 8.03905 23.6423L6.96095 21.9578ZM15.1 18L15.4011 17.0464C15.1184 16.9572 14.8107 16.9979 14.561 17.1578L15.1 18ZM20.7 19.9L20.3543 20.8384C20.3881 20.8508 20.4225 20.8614 20.4575 20.8702L20.7 19.9ZM26 15.4L26.666 14.6541C26.2704 14.3009 25.6679 14.3179 25.2929 14.6929L26 15.4ZM33.634 23.546C34.0459 23.9138 34.6781 23.878 35.0459 23.466C35.4138 23.0541 35.378 22.4219 34.966 22.0541L33.634 23.546ZM1 34C0.447715 34 0 34.4477 0 35C0 35.5523 0.447715 36 1 36V34ZM39 36C39.5523 36 40 35.5523 40 35C40 34.4477 39.5523 34 39 34V36ZM8 3C8 1.34772 6.65228 0 5 0V2C5.54772 2 6 2.45228 6 3H8ZM5 0C3.34772 0 2 1.34772 2 3H4C4 2.45228 4.45228 2 5 2V0ZM36 3C36 1.34772 34.6523 0 33 0V2C33.5477 2 34 2.45228 34 3H36ZM36 27V3H34V27H36ZM8 27V3H6V27H8ZM4 19V3H2V19H4ZM2 28H38V26H2V28ZM33 0H5V2H33V0ZM7 7H35V5H7V7ZM19 27V31H21V27H19ZM15.2 36H24.8V34H15.2V36ZM25.7772 34.7876C25.1871 32.0731 22.9152 30 20 30V32C21.8848 32 23.4129 33.3269 23.8228 35.2124L25.7772 34.7876ZM20 30C17.0848 30 14.8129 32.0731 14.2228 34.7876L16.1772 35.2124C16.5871 33.3269 18.1152 32 20 32V30ZM8.03905 23.6423C9.28464 22.8451 10.5558 22.0475 11.8315 21.2471C13.1058 20.4475 14.3846 19.6451 15.6391 18.8423L14.561 17.1578C13.3154 17.9549 12.0442 18.7525 10.7685 19.553C9.49418 20.3525 8.21536 21.1549 6.96095 21.9578L8.03905 23.6423ZM14.7989 18.9536C16.6889 19.5505 18.4732 20.1453 20.3543 20.8384L21.0457 18.9617C19.1268 18.2547 17.3111 17.6496 15.4011 17.0464L14.7989 18.9536ZM20.4575 20.8702C21.1058 21.0323 21.8981 20.9162 22.4071 20.4071L20.9929 18.9929C21.03 18.9558 21.0593 18.9398 21.0684 18.9353C21.0784 18.9303 21.0779 18.9321 21.0655 18.9347C21.0536 18.9373 21.0356 18.9396 21.013 18.9392C20.9907 18.9389 20.9667 18.9359 20.9425 18.9299L20.4575 20.8702ZM22.4071 20.4071C23.1071 19.7071 23.8321 18.9821 24.5571 18.2571C25.2821 17.5321 26.0071 16.8071 26.7071 16.1071L25.2929 14.6929C24.5929 15.3929 23.8679 16.1179 23.1429 16.8429C22.4179 17.5679 21.6929 18.2929 20.9929 18.9929L22.4071 20.4071ZM25.334 16.146C26.7345 17.3964 28.1099 18.6217 29.4848 19.8467C30.8598 21.0717 32.2344 22.2964 33.634 23.546L34.966 22.0541C33.5655 20.8037 32.1901 19.5783 30.8152 18.3534C29.4401 17.1283 28.0655 15.9037 26.666 14.6541L25.334 16.146ZM1 36H39V34H1V36Z" fill="#83C500"/>
</svg>
