<svg width="40" height="40" viewBox="0 0 40 40" fill="none" xmlns="http://www.w3.org/2000/svg">
<path d="M24.4 24.4L23.6929 23.6929L23.6885 23.6974L24.4 24.4ZM6.50002 33.4L5.79291 34.1071L5.80113 34.1153L5.80954 34.1234L6.50002 33.4ZM24.4 15.6L23.6929 16.3071L23.6974 16.3115L24.4 15.6ZM17.126 34.4227C16.9177 33.9112 16.3341 33.6655 15.8227 33.8739C15.3112 34.0823 15.0655 34.6658 15.2739 35.1773L17.126 34.4227ZM24.726 35.1773C24.9344 34.6658 24.6887 34.0823 24.1772 33.8739C23.6658 33.6655 23.0822 33.9112 22.8738 34.4227L24.726 35.1773ZM22.8738 5.5773C23.0822 6.08876 23.6658 6.33447 24.1772 6.12609C24.6887 5.91772 24.9344 5.33417 24.726 4.8227L22.8738 5.5773ZM15.2739 4.8227C15.0655 5.33417 15.3112 5.91772 15.8227 6.12609C16.3341 6.33447 16.9177 6.08876 17.126 5.5773L15.2739 4.8227ZM34.4227 22.8739C33.9112 23.0822 33.6655 23.6658 33.8739 24.1772C34.0823 24.6887 34.6658 24.9344 35.1773 24.726L34.4227 22.8739ZM35.1773 15.2739C34.6658 15.0655 34.0823 15.3112 33.8739 15.8227C33.6655 16.3341 33.9112 16.9177 34.4227 17.126L35.1773 15.2739ZM5.57731 17.126C6.08878 16.9177 6.33448 16.3341 6.1261 15.8227C5.91773 15.3112 5.33418 15.0655 4.82272 15.2739L5.57731 17.126ZM4.82272 24.726C5.33418 24.9344 5.91773 24.6887 6.1261 24.1772C6.33448 23.6658 6.08878 23.0822 5.57731 22.8739L4.82272 24.726ZM25.1071 25.1071C29.1203 21.0939 31.9701 17.0521 33.5541 13.7025C34.3438 12.0324 34.84 10.4899 34.9846 9.18174C35.1253 7.90899 34.9522 6.63796 34.1071 5.79291L32.6929 7.20712C32.8979 7.41207 33.1123 7.91604 32.9967 8.96205C32.885 9.97261 32.4813 11.2926 31.746 12.8475C30.2799 15.9479 27.5797 19.8061 23.6929 23.6929L25.1071 25.1071ZM34.1071 5.79291C33.2621 4.94786 31.9911 4.77479 30.7183 4.91544C29.4101 5.06002 27.8676 5.55626 26.1975 6.34599C22.8479 7.92991 18.8061 10.7797 14.7929 14.7929L16.2071 16.2071C20.0939 12.3203 23.9521 9.62013 27.0525 8.15404C28.6074 7.41877 29.9274 7.01502 30.938 6.90334C31.984 6.78775 32.488 7.00218 32.6929 7.20712L34.1071 5.79291ZM14.7929 14.7929C10.7797 18.8061 7.92991 22.8479 6.34599 26.1975C5.55627 27.8676 5.06002 29.4101 4.91544 30.7183C4.77479 31.991 4.94786 33.2621 5.79291 34.1071L7.20712 32.6929C7.00218 32.488 6.78775 31.984 6.90334 30.938C7.01502 29.9274 7.41877 28.6074 8.15404 27.0525C9.62012 23.9521 12.3203 20.0939 16.2071 16.2071L14.7929 14.7929ZM5.80954 34.1234C6.66969 34.9444 7.931 35.1323 9.21689 34.9994C10.5312 34.8636 12.0722 34.3768 13.7385 33.5923C17.0796 32.0192 21.0983 29.1668 25.1116 25.1027L23.6885 23.6974C19.8018 27.6332 15.9705 30.3308 12.8866 31.7828C11.3404 32.5107 10.0251 32.9052 9.01128 33.01C7.96904 33.1177 7.43034 32.9056 7.19049 32.6767L5.80954 34.1234ZM25.1071 14.8929C21.094 10.8797 17.0521 8.02989 13.7025 6.44597C12.0324 5.65624 10.4899 5.15999 9.18174 5.01542C7.90899 4.87477 6.63796 5.04784 5.79291 5.89289L7.20712 7.3071C7.41207 7.10215 7.91604 6.88772 8.96205 7.00332C9.97261 7.115 11.2926 7.51875 12.8475 8.25402C15.948 9.7201 19.8061 12.4203 23.6929 16.3071L25.1071 14.8929ZM5.79291 5.89289C4.94786 6.73794 4.77479 8.00897 4.91544 9.28171C5.06002 10.5899 5.55626 12.1324 6.34599 13.8025C7.92991 17.1521 10.7797 21.1939 14.7929 25.2071L16.2071 23.7929C12.3203 19.9061 9.62012 16.0479 8.15404 12.9475C7.41877 11.3926 7.01502 10.0726 6.90334 9.06203C6.78775 8.01602 7.00218 7.51205 7.20712 7.3071L5.79291 5.89289ZM14.7929 25.2071C18.8061 29.2203 22.8479 32.0701 26.1975 33.654C27.8676 34.4437 29.4101 34.94 30.7183 35.0846C31.9911 35.2252 33.2621 35.0522 34.1071 34.2071L32.6929 32.7929C32.488 32.9978 31.984 33.2123 30.938 33.0967C29.9274 32.985 28.6074 32.5812 27.0525 31.846C23.9521 30.3799 20.0939 27.6797 16.2071 23.7929L14.7929 25.2071ZM34.1071 34.2071C34.9485 33.3658 35.1317 32.0996 34.9994 30.8249C34.8635 29.5158 34.377 27.9722 33.5929 26.3004C32.0205 22.9476 29.1685 18.9034 25.1027 14.8885L23.6974 16.3115C27.6316 20.1966 30.3296 24.0524 31.7822 27.1496C32.5106 28.7028 32.9053 30.0217 33.0101 31.0313C33.1184 32.0754 32.9016 32.5842 32.6929 32.7929L34.1071 34.2071ZM15.2739 35.1773C15.851 36.5939 16.5307 37.7584 17.2862 38.5865C18.0299 39.4017 18.9527 40 19.9999 40V38C19.7472 38 19.32 37.8483 18.7637 37.2385C18.2192 36.6416 17.6489 35.7061 17.126 34.4227L15.2739 35.1773ZM19.9999 40C21.0472 40 21.97 39.4017 22.7137 38.5865C23.4691 37.7584 24.1489 36.5939 24.726 35.1773L22.8738 34.4227C22.351 35.7061 21.7807 36.6416 21.2362 37.2385C20.6799 37.8483 20.2527 38 19.9999 38V40ZM24.726 4.8227C24.1489 3.40615 23.4691 2.24162 22.7137 1.41354C21.97 0.598275 21.0472 0 19.9999 0V2C20.2527 2 20.6799 2.15172 21.2362 2.76146C21.7807 3.35838 22.351 4.29385 22.8738 5.5773L24.726 4.8227ZM19.9999 0C18.9527 0 18.0299 0.598275 17.2862 1.41354C16.5307 2.24162 15.851 3.40615 15.2739 4.8227L17.126 5.5773C17.6489 4.29385 18.2192 3.35838 18.7637 2.76146C19.32 2.15172 19.7472 2 19.9999 2V0ZM35.1773 24.726C36.5938 24.1489 37.7584 23.4692 38.5865 22.7137C39.4017 21.97 40 21.0472 40 20H38C38 20.2527 37.8483 20.6799 37.2385 21.2362C36.6416 21.7807 35.7061 22.351 34.4227 22.8739L35.1773 24.726ZM40 20C40 18.9527 39.4017 18.0299 38.5865 17.2862C37.7584 16.5307 36.5938 15.851 35.1773 15.2739L34.4227 17.126C35.7061 17.6489 36.6416 18.2192 37.2385 18.7637C37.8483 19.32 38 19.7472 38 20H40ZM4.82272 15.2739C3.40616 15.851 2.24163 16.5307 1.41355 17.2862C0.59828 18.0299 0 18.9527 0 20H2C2 19.7472 2.15173 19.32 2.76147 18.7637C3.35839 18.2192 4.29387 17.6489 5.57731 17.126L4.82272 15.2739ZM0 20C0 21.0472 0.59828 21.97 1.41355 22.7137C2.24163 23.4692 3.40616 24.1489 4.82272 24.726L5.57731 22.8739C4.29387 22.351 3.35839 21.7807 2.76147 21.2362C2.15173 20.6799 2 20.2527 2 20H0Z" fill="#83C500"/>
</svg>
