<svg width="17" height="10" viewBox="0 0 17 10" fill="none" xmlns="http://www.w3.org/2000/svg">
<path d="M15.2 9.5H13.1C13.1 9.5 12.5999 9.6 11.9999 9.2C11.1999 8.7 10.4999 7.3 9.89994 7.4C9.29994 7.6 9.29994 8.9 9.29994 8.9C9.29994 8.9 9.29996 9.2 9.19996 9.3C9.09996 9.5 8.79994 9.5 8.79994 9.5H7.89994C7.89994 9.5 5.79995 9.6 3.99995 7.7C1.99995 5.6 0.199962 1.5 0.199962 1.5C0.199962 1.5 0.099962 1.2 0.199962 1.1C0.299962 1 0.699962 0.9 0.699962 0.9H2.99995C2.99995 0.9 3.19994 0.9 3.39994 1C3.49994 1.1 3.59996 1.3 3.59996 1.3C3.59996 1.3 3.99994 2.2 4.39994 3.1C5.29994 4.7 5.79996 5.1 6.09996 4.9C6.59996 4.6 6.39994 2.6 6.39994 2.6C6.39994 2.6 6.39996 1.9 6.19996 1.5C5.99996 1.2 5.69995 1.2 5.49995 1.1C5.39995 1.1 5.59994 0.8 5.89994 0.7C6.29994 0.5 6.99994 0.5 7.89994 0.5C8.59994 0.5 8.79995 0.5 8.99995 0.6C9.79995 0.8 9.49995 1.5 9.49995 3.3C9.49995 3.9 9.39994 4.6 9.79994 4.9C9.99994 5 10.3999 4.9 11.4999 3.1C11.9999 2.2 12.3999 1.2 12.3999 1.2C12.3999 1.2 12.5 1 12.6 0.9C12.7 0.8 12.8999 0.8 12.8999 0.8H15.2999C15.2999 0.8 16 0.7 16.1 1C16.2 1.3 15.7999 2.1 14.8999 3.4C13.2999 5.5 13.0999 5.3 14.4999 6.6C15.7999 7.8 16 8.3 16.1 8.4C16.3 9.4 15.2 9.5 15.2 9.5Z" fill="#929BAF"/>
</svg>
