<svg width="18" height="12" viewBox="0 0 18 12" fill="none" xmlns="http://www.w3.org/2000/svg">
<path d="M17.3999 2.6C17.3999 2.6 17.1999 1.4 16.6999 0.9C16.0999 0.2 15.2999 0.2 14.9999 0.2C12.5999 -1.93715e-07 8.99991 0 8.99991 0C8.99991 0 5.39991 -1.93715e-07 2.99991 0.2C2.69991 0.2 1.8999 0.2 1.2999 0.9C0.799896 1.4 0.599915 2.6 0.599915 2.6C0.599915 2.6 0.399902 4 0.399902 5.4V6.7C0.399902 8.1 0.599915 9.5 0.599915 9.5C0.599915 9.5 0.799896 10.7 1.2999 11.2C1.8999 11.9 2.79992 11.9 3.19992 11.9C4.59992 12 8.99991 12 8.99991 12C8.99991 12 12.5999 12 14.9999 11.8C15.2999 11.8 16.0999 11.8 16.6999 11.1C17.1999 10.6 17.3999 9.4 17.3999 9.4C17.3999 9.4 17.5999 8 17.5999 6.6V5.3C17.4999 4 17.3999 2.6 17.3999 2.6ZM7.19992 8.2V3.4L11.7999 5.8L7.19992 8.2Z" fill="#929BAF"/>
</svg>
